<svg xmlns="http://www.w3.org/2000/svg" width="211.795" height="211.795" viewBox="0 0 211.795 211.795"><defs><style>.a{fill:#f8f8f8;stroke:#cbcbcb;}.b{fill:#c6c6c6;}.c{fill:#b02721;}.d{fill:#b8b8b8;}.e{fill:#efedee;}.f{fill:#e34b4c;}.g{fill:#3a484a;}.h{fill:#d2d2d2;}</style></defs><g transform="translate(37.676 7.5)"><path class="a" d="M210.8,105.4a104.941,104.941,0,0,1-20.168,62.021,106.424,106.424,0,0,1-8.268,9.989A105.4,105.4,0,0,1,16.21,161.577q-2.052-3.226-3.854-6.617-.981-1.832-1.889-3.712-1.394-2.885-2.616-5.864A105.465,105.465,0,0,1,138.247,5.223q2.09.684,4.151,1.458a103.976,103.976,0,0,1,13.349,6.1c.237.129.469.258.7.392A105.35,105.35,0,0,1,210.8,105.4Z" transform="translate(-37.176 -7)"/><g transform="translate(0.5)"><path class="b" d="M110.848,23.843H83.335a17.494,17.494,0,1,0-32.6,0H23.219A22.717,22.717,0,0,0,.5,46.562V63.918L67.034,77.884l66.535-13.967V46.562a22.718,22.718,0,0,0-22.721-22.719Zm-43.814,0a6.349,6.349,0,1,1,6.349-6.349A6.349,6.349,0,0,1,67.034,23.843Zm0,0" transform="translate(-0.5 0)"/><path class="b" d="M33.212,334.3.5,346.925v17.354A22.718,22.718,0,0,0,23.219,387H50.056v16.118H60.911V363.334Zm0,0" transform="translate(-0.5 -204.845)"/><path class="b" d="M218.327,334.3l-30.206,28.51v40.3h10.855V387h26.837a22.718,22.718,0,0,0,22.719-22.721V346.925Zm0,0" transform="translate(-115.465 -204.845)"/></g><path class="c" d="M124.892,334.3H54.742l-19.105,12.62v17.354a9.111,9.111,0,0,0,9.114,9.113H73.722a8.719,8.719,0,0,1,8.719,8.721v21.005H94.688V382.112a8.719,8.719,0,0,1,8.719-8.721h28.971a9.111,9.111,0,0,0,9.113-9.113V346.925Zm0,0" transform="translate(-21.53 -204.845)"/><path class="c" d="M132.378,96.707H44.749a9.111,9.111,0,0,0-9.113,9.113v17.355l52.928,13.967,52.926-13.967V105.82a9.111,9.111,0,0,0-9.113-9.113Zm0,0" transform="translate(-21.53 -59.257)"/><path class="d" d="M.5,165.055H133.567v78.163H.5Zm0,0" transform="translate(0 -101.137)"/><path class="e" d="M38.07,227.758h32.4a2.992,2.992,0,1,0,0-5.984H38.07a2.992,2.992,0,1,0,0,5.984Zm0,0" transform="translate(-21.188 -135.892)"/><path class="e" d="M38.07,264.23h32.4a2.992,2.992,0,1,0,0-5.984H38.07a2.992,2.992,0,1,0,0,5.984Zm0,0" transform="translate(-21.188 -158.24)"/><path class="e" d="M101.57,294.723H38.07a2.992,2.992,0,0,0,0,5.984h63.5a2.992,2.992,0,0,0,0-5.984Zm0,0" transform="translate(-21.187 -180.591)"/><path class="f" d="M273.7,284.471h-3.487v-3.487a2.992,2.992,0,1,0-5.984,0v3.487h-3.488a2.992,2.992,0,1,0,0,5.984h3.488v3.488a2.992,2.992,0,0,0,5.984,0v-3.488H273.7a2.992,2.992,0,1,0,0-5.984Zm0,0" transform="translate(-157.632 -170.34)"/><path class="g" d="M169.911,224.155a2.992,2.992,0,0,0,2.992-2.992v-4.585a2.992,2.992,0,0,0-5.984,0v4.585A2.992,2.992,0,0,0,169.911,224.155Zm0,0" transform="translate(-101.973 -130.875)"/><path class="g" d="M300.766,213.586a2.992,2.992,0,0,0-2.992,2.992v4.585a2.992,2.992,0,1,0,5.984,0v-4.585A2.993,2.993,0,0,0,300.766,213.586Zm0,0" transform="translate(-182.154 -130.875)"/><path class="g" d="M233.949,229.564a2.992,2.992,0,0,0-4.506-3.938,5.465,5.465,0,0,1-8,0,2.992,2.992,0,1,0-4.5,3.938,11.44,11.44,0,0,0,17.013,0Zm0,0" transform="translate(-132.168 -137.625)"/><path class="c" d="M35.637,366.895H141.491V379.54H35.637Zm0,0" transform="translate(-21.53 -224.815)"/><path class="h" d="M308.984,366.895h13.608V379.54H308.984Zm0,0" transform="translate(-189.024 -224.815)"/><path class="h" d="M.5,366.895H14.107V379.54H.5Zm0,0" transform="translate(0 -224.815)"/></g></svg>