<svg xmlns="http://www.w3.org/2000/svg" width="211.795" height="268.882" viewBox="0 0 211.795 268.882"><defs><style>.a{fill:#f8f8f8;stroke:#cbcbcb;}.b{fill:#c6c6c6;}.c{fill:#b02721;}.d{fill:#e6e6e6;}.e{fill:#dd352e;}.f{fill:#556080;}.g{fill:#c7cac7;}</style></defs><g transform="translate(20.398 11.5)"><path class="a" d="M210.8,105.4a104.941,104.941,0,0,1-20.168,62.021,106.424,106.424,0,0,1-8.268,9.989A105.4,105.4,0,0,1,16.21,161.577q-2.052-3.226-3.854-6.617-.981-1.832-1.889-3.712-1.394-2.885-2.616-5.864A105.465,105.465,0,0,1,138.247,5.223q2.09.684,4.151,1.458a103.976,103.976,0,0,1,13.349,6.1c.237.129.469.258.7.392A105.35,105.35,0,0,1,210.8,105.4Z" transform="translate(-19.898 -11)"/><path class="b" d="M103.794,18.987V7.834A7.833,7.833,0,0,0,95.961,0H62.922a7.833,7.833,0,0,0-7.834,7.834V18.987a5.366,5.366,0,0,1-5.366,5.366H29.733A15.231,15.231,0,0,0,14.5,39.586V167.017a11.569,11.569,0,0,0,11.572,11.572H132.811a11.569,11.569,0,0,0,11.572-11.572V39.586A15.231,15.231,0,0,0,129.15,24.353H109.16A5.366,5.366,0,0,1,103.794,18.987Z" transform="translate(6.118)"/><g transform="translate(28.735 32.471)"><path class="c" d="M101.193,138.882H39.336a4.414,4.414,0,0,1-2.748-.962L19.152,123.97a4.41,4.41,0,0,1-1.652-3.438V13.4A4.4,4.4,0,0,1,21.9,9h96.734a4.4,4.4,0,0,1,4.4,4.4V120.532a4.4,4.4,0,0,1-1.652,3.434l-17.437,13.95A4.413,4.413,0,0,1,101.193,138.882Z" transform="translate(-13.441 -4.941)"/><path class="d" d="M104.252,146H42.4a8.509,8.509,0,0,1-5.276-1.847L19.67,130.195a8.417,8.417,0,0,1-3.17-6.6V16.459A8.469,8.469,0,0,1,24.959,8h96.73a8.469,8.469,0,0,1,8.459,8.459V123.591a8.423,8.423,0,0,1-3.17,6.6l-17.441,13.954A8.528,8.528,0,0,1,104.252,146ZM24.959,16.118a.343.343,0,0,0-.341.341V123.591l17.567,14.218,62.068.073a.341.341,0,0,0,.219-.081L121.9,123.855l.126-107.4a.343.343,0,0,0-.341-.341Z" transform="translate(-16.5 -8)"/></g><g transform="translate(12.5 154.235)"><circle class="e" cx="4.059" cy="4.059" r="4.059" transform="translate(69 48.706)"/><path class="e" d="M85.559,68.294A4.058,4.058,0,0,0,81.5,72.353,12.191,12.191,0,0,1,69.324,84.529,16.252,16.252,0,0,1,53.088,68.294a3.976,3.976,0,0,0-.187-.929C51.956,56.211,43.684,48,32.794,48S13.632,56.211,12.687,67.369a3.9,3.9,0,0,0-.187.925V105.8c0,2.24,1.824,4.755,4.069,4.755s4.049-2.515,4.049-4.755V69.455c0-7.728,5.122-13.337,12.176-13.337s12.176,5.609,12.176,13.337c0,.138.065.256.077.39a24.366,24.366,0,0,0,24.276,22.8A20.317,20.317,0,0,0,89.618,72.353,4.058,4.058,0,0,0,85.559,68.294Z" transform="translate(-12.5 -7.412)"/><path class="e" d="M33.559,38A4.058,4.058,0,0,0,29.5,42.059V74.529a4.059,4.059,0,1,0,8.118,0V42.059A4.058,4.058,0,0,0,33.559,38Z" transform="translate(39.5 -38)"/></g><path class="f" d="M54.912,6.059H46.794a4.059,4.059,0,1,0-8.118,0H30.559a4.059,4.059,0,0,0,0,8.118h8.118a4.059,4.059,0,1,0,8.118,0h8.118a4.059,4.059,0,1,0,0-8.118Z" transform="translate(42.824 6.118)"/><circle class="e" cx="4.059" cy="4.059" r="4.059" transform="translate(44.971 48.706)"/><circle class="e" cx="4.059" cy="4.059" r="4.059" transform="translate(69.324 48.706)"/><circle class="e" cx="4.059" cy="4.059" r="4.059" transform="translate(93.676 48.706)"/><circle class="e" cx="4.059" cy="4.059" r="4.059" transform="translate(118.029 48.706)"/><circle class="e" cx="4.059" cy="4.059" r="4.059" transform="translate(57.147 60.882)"/><circle class="e" cx="4.059" cy="4.059" r="4.059" transform="translate(81.5 60.882)"/><circle class="e" cx="4.059" cy="4.059" r="4.059" transform="translate(105.853 60.882)"/><circle class="e" cx="4.059" cy="4.059" r="4.059" transform="translate(44.971 73.059)"/><circle class="e" cx="4.059" cy="4.059" r="4.059" transform="translate(69.324 73.059)"/><circle class="e" cx="4.059" cy="4.059" r="4.059" transform="translate(44.971 97.412)"/><circle class="e" cx="4.059" cy="4.059" r="4.059" transform="translate(69.324 97.412)"/><circle class="e" cx="4.059" cy="4.059" r="4.059" transform="translate(57.147 85.235)"/><circle class="e" cx="4.059" cy="4.059" r="4.059" transform="translate(81.5 85.235)"/><circle class="e" cx="4.059" cy="4.059" r="4.059" transform="translate(93.676 73.059)"/><circle class="e" cx="4.059" cy="4.059" r="4.059" transform="translate(118.029 73.059)"/><circle class="e" cx="4.059" cy="4.059" r="4.059" transform="translate(93.676 97.412)"/><circle class="e" cx="4.059" cy="4.059" r="4.059" transform="translate(118.029 97.412)"/><circle class="e" cx="4.059" cy="4.059" r="4.059" transform="translate(105.853 85.235)"/><circle class="e" cx="4.059" cy="4.059" r="4.059" transform="translate(57.147 109.588)"/><circle class="e" cx="4.059" cy="4.059" r="4.059" transform="translate(81.5 109.588)"/><circle class="e" cx="4.059" cy="4.059" r="4.059" transform="translate(105.853 109.588)"/><circle class="e" cx="4.059" cy="4.059" r="4.059" transform="translate(44.971 121.765)"/><circle class="e" cx="4.059" cy="4.059" r="4.059" transform="translate(69.324 121.765)"/><circle class="e" cx="4.059" cy="4.059" r="4.059" transform="translate(44.971 146.118)"/><circle class="e" cx="4.059" cy="4.059" r="4.059" transform="translate(69.324 146.118)"/><circle class="e" cx="4.059" cy="4.059" r="4.059" transform="translate(57.147 133.941)"/><circle class="e" cx="4.059" cy="4.059" r="4.059" transform="translate(81.5 133.941)"/><circle class="e" cx="4.059" cy="4.059" r="4.059" transform="translate(93.676 121.765)"/><circle class="e" cx="4.059" cy="4.059" r="4.059" transform="translate(118.029 121.765)"/><circle class="e" cx="4.059" cy="4.059" r="4.059" transform="translate(93.676 146.118)"/><circle class="e" cx="4.059" cy="4.059" r="4.059" transform="translate(118.029 146.118)"/><circle class="e" cx="4.059" cy="4.059" r="4.059" transform="translate(105.853 133.941)"/><path class="g" d="M48.474,82.529H37l-10.5-10.5V46H58.971V72.033Zm-8.118-8.118h4.757l5.739-5.739V54.118H34.618V68.673Z" transform="translate(42.824 140.706)"/><path class="g" d="M69.147,54.118H28.559a4.059,4.059,0,0,1,0-8.118H69.147a4.059,4.059,0,0,1,0,8.118Z" transform="translate(36.706 140.706)"/></g></svg>