<?xml version="1.0" encoding="UTF-8" standalone="no"?>
<svg
   xmlns:dc="http://purl.org/dc/elements/1.1/"
   xmlns:cc="http://creativecommons.org/ns#"
   xmlns:rdf="http://www.w3.org/1999/02/22-rdf-syntax-ns#"
   xmlns:svg="http://www.w3.org/2000/svg"
   xmlns="http://www.w3.org/2000/svg"
   xmlns:sodipodi="http://sodipodi.sourceforge.net/DTD/sodipodi-0.dtd"
   xmlns:inkscape="http://www.inkscape.org/namespaces/inkscape"
   width="211.795"
   height="268.88199"
   viewBox="0 0 211.795 268.88199"
   version="1.1"
   id="svg3096"
   sodipodi:docname="blood-transfusion-1.svg"
   inkscape:version="0.92.4 (5da689c313, 2019-01-14)">
  <metadata
     id="metadata3100">
    <rdf:RDF>
      <cc:Work
         rdf:about="">
        <dc:format>image/svg+xml</dc:format>
        <dc:type
           rdf:resource="http://purl.org/dc/dcmitype/StillImage" />
        <dc:title />
      </cc:Work>
    </rdf:RDF>
  </metadata>
  <sodipodi:namedview
     pagecolor="#ffffff"
     bordercolor="#666666"
     borderopacity="1"
     objecttolerance="10"
     gridtolerance="10"
     guidetolerance="10"
     inkscape:pageopacity="0"
     inkscape:pageshadow="2"
     inkscape:window-width="1920"
     inkscape:window-height="1018"
     id="namedview3098"
     showgrid="false"
     inkscape:zoom="3.1516741"
     inkscape:cx="57.678787"
     inkscape:cy="164.26692"
     inkscape:window-x="0"
     inkscape:window-y="34"
     inkscape:window-maximized="1"
     inkscape:current-layer="svg3096"
     inkscape:snap-page="true"
     inkscape:snap-bbox="true" />
  <defs
     id="defs3062">
    <style
       id="style3060">.a{fill:#f8f8f8;stroke:#cbcbcb;}.b{fill:#ffcda8;}.c{fill:#efb691;}.d{fill:#ff5b47;}.e{fill:#fff;}</style>
  </defs>
  <g
     id="g3680"
     transform="translate(0,-0.025503)">
    <path
       class="b"
       d="m 133.675,122.546 -76.721,76.722 a 105.827,105.827 0 0 1 -44.1,-43.807 q -0.981,-1.832 -1.889,-3.712 -1.394,-2.885 -2.616,-5.864 l 74.332,-74.33 z"
       id="path3066"
       inkscape:connector-curvature="0"
       style="fill:#ffcda8" />
    <g
       id="g3668">
      <path
         style="fill:#efb691"
         inkscape:connector-curvature="0"
         id="path3068"
         d="M 94.957,83.828 16.71,162.076 q -2.052,-3.226 -3.854,-6.617 -0.981,-1.832 -1.889,-3.712 -1.394,-2.885 -2.616,-5.864 l 74.33,-74.328 z"
         class="c" />
      <path
         style="fill:#ffcda8"
         inkscape:connector-curvature="0"
         id="path3070"
         d="m 184.783,108.479 c -6.356,1.821 -15.539,11 -15.591,11.049 0,0 -35.544,35.209 -61.095,9.658 l -23,-23 C 66.24,87.329 74.887,57.377 91.497,40.772 l 36.88,-36.88 a 10.92,10.92 0 1 1 15.436,15.442 L 159.449,3.7 a 10.920557,10.920557 0 1 1 15.444,15.444 L 186.933,7.1 a 10.924093,10.924093 0 1 1 15.45,15.448 l -9.724,9.724 a 10.918082,10.918082 0 1 1 15.44,15.441 l -41.428,41.425 a 54.093,54.093 0 0 1 11.243,-4.627 12.466024,12.466024 0 1 1 6.866,23.968 z"
         class="b" />
      <g
         id="g3082"
         transform="translate(74.415,0.562)">
        <path
           style="fill:#efb691"
           inkscape:connector-curvature="0"
           id="path3072"
           transform="translate(-179.531,-0.341)"
           d="m 195.459,111.214 -5.251,-5.251 C 171.352,87.107 180,57.155 196.6,40.55 L 233.48,3.67 a 10.922,10.922 0 0 1 17.61,3.085 10.927,10.927 0 0 0 -12.359,2.166 L 201.855,45.8 c -16.606,16.606 -25.255,46.558 -6.396,65.414 z"
           class="c" />
        <path
           style="fill:#efb691"
           inkscape:connector-curvature="0"
           id="path3074"
           transform="translate(-247.88,-0.151)"
           d="M 296.8,39.4 332.733,3.467 a 11.086,11.086 0 0 1 15.425,-0.374 10.836,10.836 0 0 1 2.365,3.279 10.927,10.927 0 0 0 -12.359,2.166 L 302.05,44.651 a 3.713,3.713 0 0 1 -5.251,0 v 0 A 3.714,3.714 0 0 1 296.8,39.4 Z"
           class="c" />
        <path
           style="fill:#efb691"
           inkscape:connector-curvature="0"
           id="path3076"
           transform="translate(-274.566,-4.757)"
           d="M 342.161,56.217 387.083,11.3 a 11.087,11.087 0 0 1 15.425,-0.374 10.837,10.837 0 0 1 2.365,3.279 10.927,10.927 0 0 0 -12.359,2.166 l -45.1,45.1 a 3.713,3.713 0 0 1 -5.251,0 v 0 a 3.714,3.714 0 0 1 -0.002,-5.254 z"
           class="c" />
        <path
           style="fill:#efb691"
           inkscape:connector-curvature="0"
           id="path3078"
           transform="translate(-293.045,-40.722)"
           d="m 373.573,110.144 37.712,-37.712 a 11.087,11.087 0 0 1 15.425,-0.374 10.837,10.837 0 0 1 2.365,3.279 10.927,10.927 0 0 0 -12.359,2.163 l -37.892,37.892 a 3.713,3.713 0 0 1 -5.251,0 v 0 a 3.712,3.712 0 0 1 0,-5.248 z"
           class="c" />
        <path
           style="fill:#efb691"
           inkscape:connector-curvature="0"
           id="path3080"
           transform="translate(-237.462,-119.407)"
           d="m 356.831,214.473 a 12.462,12.462 0 0 0 -13.9,-5.211 53.426,53.426 0 0 0 -23.631,14.055 28.762,28.762 0 0 0 -36.637,-3.363 2.969,2.969 0 0 1 -3.791,-0.329 v 0 a 2.968,2.968 0 0 1 0.259,-4.422 28.762,28.762 0 0 1 38.2,2.207 53.421,53.421 0 0 1 23.631,-14.055 12.475,12.475 0 0 1 15.871,11.119 z"
           class="c" />
      </g>
    </g>
  </g>
  <path
     style="fill:#e91e63;fill-opacity:1"
     inkscape:connector-curvature="0"
     id="path3084"
     d="m 191.128,167.89249 a 106.423,106.423 0 0 1 -8.268,9.989 l -17.642,-17.642 a 20.617,20.617 0 0 0 -29.159,0 l -32.05,32.053 a 33.528175,33.528175 0 0 1 -47.416,-47.416 l 7.313,-7.31299 9.129,9.12899 -7.313,7.313 a 20.618173,20.618173 0 1 0 29.159,29.158 l 32.049,-32.049 a 33.572,33.572 0 0 1 47.416,0 z"
     class="d" />
  <g
     id="g3090"
     transform="translate(58.096,129.2295)">
    <rect
       style="fill:#ffffff"
       y="0"
       x="0"
       id="rect3086"
       transform="rotate(-45,10.056407,4.1655)"
       height="20.936001"
       width="10.898"
       class="e" />
    <rect
       style="fill:#ffffff"
       y="0"
       x="0"
       id="rect3088"
       transform="rotate(-45,13.865465,-7.1642636)"
       height="8.9069996"
       width="10.898"
       class="e" />
  </g>
  <path
     style="fill:#efb691"
     inkscape:connector-curvature="0"
     id="path3092"
     d="m 86.353,117.80949 -11.421,11.421 6.3,6.3 11.421,-11.42099 a 4.454,4.454 0 0 0 0,-6.30001 v 0 a 4.454,4.454 0 0 0 -6.3,0 z"
     class="c" />
</svg>
