<?xml version="1.0" encoding="UTF-8" standalone="no"?>
<svg
   xmlns:dc="http://purl.org/dc/elements/1.1/"
   xmlns:cc="http://creativecommons.org/ns#"
   xmlns:rdf="http://www.w3.org/1999/02/22-rdf-syntax-ns#"
   xmlns:svg="http://www.w3.org/2000/svg"
   xmlns="http://www.w3.org/2000/svg"
   xmlns:sodipodi="http://sodipodi.sourceforge.net/DTD/sodipodi-0.dtd"
   xmlns:inkscape="http://www.inkscape.org/namespaces/inkscape"
   width="211.795"
   height="268.882"
   viewBox="0 0 211.795 268.882"
   version="1.1"
   id="svg2206"
   sodipodi:docname="blood-transfusion-2.svg"
   inkscape:version="0.92.4 (5da689c313, 2019-01-14)">
  <metadata
     id="metadata2210">
    <rdf:RDF>
      <cc:Work
         rdf:about="">
        <dc:format>image/svg+xml</dc:format>
        <dc:type
           rdf:resource="http://purl.org/dc/dcmitype/StillImage" />
      </cc:Work>
    </rdf:RDF>
  </metadata>
  <sodipodi:namedview
     pagecolor="#ffffff"
     bordercolor="#666666"
     borderopacity="1"
     objecttolerance="10"
     gridtolerance="10"
     guidetolerance="10"
     inkscape:pageopacity="0"
     inkscape:pageshadow="2"
     inkscape:window-width="1920"
     inkscape:window-height="1018"
     id="namedview2208"
     showgrid="false"
     inkscape:zoom="2.4825345"
     inkscape:cx="54.562313"
     inkscape:cy="73.1989"
     inkscape:window-x="0"
     inkscape:window-y="34"
     inkscape:window-maximized="1"
     inkscape:current-layer="g2204" />
  <defs
     id="defs2114">
    <style
       id="style2112">.a{fill:#f8f8f8;stroke:#cbcbcb;}.b{fill:#c6c6c6;}.c{fill:#b02721;}.d{fill:#e6e6e6;}.e{fill:#dd352e;}.f{fill:#556080;}.g{fill:#c7cac7;}</style>
  </defs>
  <g
     transform="translate(20.398 11.5)"
     id="g2204">
    <path
       class="b"
       d="M103.794,18.987V7.834A7.833,7.833,0,0,0,95.961,0H62.922a7.833,7.833,0,0,0-7.834,7.834V18.987a5.366,5.366,0,0,1-5.366,5.366H29.733A15.231,15.231,0,0,0,14.5,39.586V167.017a11.569,11.569,0,0,0,11.572,11.572H132.811a11.569,11.569,0,0,0,11.572-11.572V39.586A15.231,15.231,0,0,0,129.15,24.353H109.16A5.366,5.366,0,0,1,103.794,18.987Z"
       transform="translate(6.118)"
       id="path2118" />
    <g
       transform="translate(28.735 32.471)"
       id="g2124">
      <path
         class="c"
         d="M101.193,138.882H39.336a4.414,4.414,0,0,1-2.748-.962L19.152,123.97a4.41,4.41,0,0,1-1.652-3.438V13.4A4.4,4.4,0,0,1,21.9,9h96.734a4.4,4.4,0,0,1,4.4,4.4V120.532a4.4,4.4,0,0,1-1.652,3.434l-17.437,13.95A4.413,4.413,0,0,1,101.193,138.882Z"
         transform="translate(-13.441 -4.941)"
         id="path2120" />
      <path
         class="d"
         d="M104.252,146H42.4a8.509,8.509,0,0,1-5.276-1.847L19.67,130.195a8.417,8.417,0,0,1-3.17-6.6V16.459A8.469,8.469,0,0,1,24.959,8h96.73a8.469,8.469,0,0,1,8.459,8.459V123.591a8.423,8.423,0,0,1-3.17,6.6l-17.441,13.954A8.528,8.528,0,0,1,104.252,146ZM24.959,16.118a.343.343,0,0,0-.341.341V123.591l17.567,14.218,62.068.073a.341.341,0,0,0,.219-.081L121.9,123.855l.126-107.4a.343.343,0,0,0-.341-.341Z"
         transform="translate(-16.5 -8)"
         id="path2122" />
    </g>
    <g
       transform="translate(12.5 154.235)"
       id="g2132"
       style="fill:#e91e63;fill-opacity:1">
      <circle
         class="e"
         cx="4.059"
         cy="4.059"
         r="4.059"
         transform="translate(69 48.706)"
         id="circle2126"
         style="fill:#e91e63;fill-opacity:1" />
      <path
         class="e"
         d="M85.559,68.294A4.058,4.058,0,0,0,81.5,72.353,12.191,12.191,0,0,1,69.324,84.529,16.252,16.252,0,0,1,53.088,68.294a3.976,3.976,0,0,0-.187-.929C51.956,56.211,43.684,48,32.794,48S13.632,56.211,12.687,67.369a3.9,3.9,0,0,0-.187.925V105.8c0,2.24,1.824,4.755,4.069,4.755s4.049-2.515,4.049-4.755V69.455c0-7.728,5.122-13.337,12.176-13.337s12.176,5.609,12.176,13.337c0,.138.065.256.077.39a24.366,24.366,0,0,0,24.276,22.8A20.317,20.317,0,0,0,89.618,72.353,4.058,4.058,0,0,0,85.559,68.294Z"
         transform="translate(-12.5 -7.412)"
         id="path2128"
         style="fill:#e91e63;fill-opacity:1" />
      <path
         class="e"
         d="M33.559,38A4.058,4.058,0,0,0,29.5,42.059V74.529a4.059,4.059,0,1,0,8.118,0V42.059A4.058,4.058,0,0,0,33.559,38Z"
         transform="translate(39.5 -38)"
         id="path2130"
         style="fill:#e91e63;fill-opacity:1" />
    </g>
    <path
       class="f"
       d="M54.912,6.059H46.794a4.059,4.059,0,1,0-8.118,0H30.559a4.059,4.059,0,0,0,0,8.118h8.118a4.059,4.059,0,1,0,8.118,0h8.118a4.059,4.059,0,1,0,0-8.118Z"
       transform="translate(42.824 6.118)"
       id="path2134" />
    <circle
       class="e"
       cx="4.059"
       cy="4.059"
       r="4.059"
       transform="translate(44.971 48.706)"
       id="circle2136"
       style="fill:#e91e63;fill-opacity:1" />
    <circle
       class="e"
       cx="4.059"
       cy="4.059"
       r="4.059"
       transform="translate(69.324 48.706)"
       id="circle2138" />
    <circle
       class="e"
       cx="4.059"
       cy="4.059"
       r="4.059"
       transform="translate(93.676 48.706)"
       id="circle2140" />
    <circle
       class="e"
       cx="4.059"
       cy="4.059"
       r="4.059"
       transform="translate(118.029 48.706)"
       id="circle2142" />
    <circle
       class="e"
       cx="4.059"
       cy="4.059"
       r="4.059"
       transform="translate(57.147 60.882)"
       id="circle2144" />
    <circle
       class="e"
       cx="4.059"
       cy="4.059"
       r="4.059"
       transform="translate(81.5 60.882)"
       id="circle2146" />
    <circle
       class="e"
       cx="4.059"
       cy="4.059"
       r="4.059"
       transform="translate(105.853 60.882)"
       id="circle2148" />
    <circle
       class="e"
       cx="4.059"
       cy="4.059"
       r="4.059"
       transform="translate(44.971 73.059)"
       id="circle2150" />
    <circle
       class="e"
       cx="4.059"
       cy="4.059"
       r="4.059"
       transform="translate(69.324 73.059)"
       id="circle2152" />
    <circle
       class="e"
       cx="4.059"
       cy="4.059"
       r="4.059"
       transform="translate(44.971 97.412)"
       id="circle2154" />
    <circle
       class="e"
       cx="4.059"
       cy="4.059"
       r="4.059"
       transform="translate(69.324 97.412)"
       id="circle2156" />
    <circle
       class="e"
       cx="4.059"
       cy="4.059"
       r="4.059"
       transform="translate(57.147 85.235)"
       id="circle2158" />
    <circle
       class="e"
       cx="4.059"
       cy="4.059"
       r="4.059"
       transform="translate(81.5 85.235)"
       id="circle2160" />
    <circle
       class="e"
       cx="4.059"
       cy="4.059"
       r="4.059"
       transform="translate(93.676 73.059)"
       id="circle2162" />
    <circle
       class="e"
       cx="4.059"
       cy="4.059"
       r="4.059"
       transform="translate(118.029 73.059)"
       id="circle2164" />
    <circle
       class="e"
       cx="4.059"
       cy="4.059"
       r="4.059"
       transform="translate(93.676 97.412)"
       id="circle2166" />
    <circle
       class="e"
       cx="4.059"
       cy="4.059"
       r="4.059"
       transform="translate(118.029 97.412)"
       id="circle2168" />
    <circle
       class="e"
       cx="4.059"
       cy="4.059"
       r="4.059"
       transform="translate(105.853 85.235)"
       id="circle2170" />
    <circle
       class="e"
       cx="4.059"
       cy="4.059"
       r="4.059"
       transform="translate(57.147 109.588)"
       id="circle2172" />
    <circle
       class="e"
       cx="4.059"
       cy="4.059"
       r="4.059"
       transform="translate(81.5 109.588)"
       id="circle2174" />
    <circle
       class="e"
       cx="4.059"
       cy="4.059"
       r="4.059"
       transform="translate(105.853 109.588)"
       id="circle2176" />
    <circle
       class="e"
       cx="4.059"
       cy="4.059"
       r="4.059"
       transform="translate(44.971 121.765)"
       id="circle2178" />
    <circle
       class="e"
       cx="4.059"
       cy="4.059"
       r="4.059"
       transform="translate(69.324 121.765)"
       id="circle2180" />
    <circle
       class="e"
       cx="4.059"
       cy="4.059"
       r="4.059"
       transform="translate(44.971 146.118)"
       id="circle2182" />
    <circle
       class="e"
       cx="4.059"
       cy="4.059"
       r="4.059"
       transform="translate(69.324 146.118)"
       id="circle2184" />
    <circle
       class="e"
       cx="4.059"
       cy="4.059"
       r="4.059"
       transform="translate(57.147 133.941)"
       id="circle2186" />
    <circle
       class="e"
       cx="4.059"
       cy="4.059"
       r="4.059"
       transform="translate(81.5 133.941)"
       id="circle2188" />
    <circle
       class="e"
       cx="4.059"
       cy="4.059"
       r="4.059"
       transform="translate(93.676 121.765)"
       id="circle2190" />
    <circle
       class="e"
       cx="4.059"
       cy="4.059"
       r="4.059"
       transform="translate(118.029 121.765)"
       id="circle2192" />
    <circle
       class="e"
       cx="4.059"
       cy="4.059"
       r="4.059"
       transform="translate(93.676 146.118)"
       id="circle2194" />
    <circle
       class="e"
       cx="4.059"
       cy="4.059"
       r="4.059"
       transform="translate(118.029 146.118)"
       id="circle2196" />
    <circle
       class="e"
       cx="4.059"
       cy="4.059"
       r="4.059"
       transform="translate(105.853 133.941)"
       id="circle2198" />
    <path
       class="g"
       d="M48.474,82.529H37l-10.5-10.5V46H58.971V72.033Zm-8.118-8.118h4.757l5.739-5.739V54.118H34.618V68.673Z"
       transform="translate(42.824 140.706)"
       id="path2200" />
    <path
       class="g"
       d="M69.147,54.118H28.559a4.059,4.059,0,0,1,0-8.118H69.147a4.059,4.059,0,0,1,0,8.118Z"
       transform="translate(36.706 140.706)"
       id="path2202" />
    <path
       style="fill:#e91e63;fill-opacity:1;stroke:none;stroke-width:0.20140707"
       d="m 80.549874,80.281106 c -2.865404,-0.746998 -3.903046,-4.351169 -1.87706,-6.519828 1.167308,-1.249511 2.477865,-1.619468 4.066091,-1.147816 3.021608,0.897322 3.874962,4.822033 1.485606,6.832543 -1.131086,0.951746 -2.250954,1.206248 -3.674637,0.835101 z"
       id="path2755"
       inkscape:connector-curvature="0"
       transform="translate(-20.398,-11.5)" />
    <path
       style="fill:#e91e63;fill-opacity:1;stroke:none;stroke-width:0.20140707"
       d="m 92.291133,67.969015 c -1.58417,-0.686181 -2.481941,-2.027096 -2.481941,-3.707037 0,-1.228355 0.34178,-2.03926 1.205166,-2.859367 1.777916,-1.688794 4.427011,-1.462877 5.998166,0.511529 0.56835,0.714221 0.615896,0.895472 0.615896,2.347838 0,1.452366 -0.04755,1.633617 -0.615896,2.347838 -1.185288,1.489504 -3.128834,2.049014 -4.721391,1.359199 z"
       id="path2757"
       inkscape:connector-curvature="0"
       transform="translate(-20.398,-11.5)" />
    <path
       style="fill:#e91e63;fill-opacity:1;stroke:none;stroke-width:0.20140707"
       d="m 116.76209,68.023038 c -1.68604,-0.65976 -2.60505,-1.985541 -2.60907,-3.763877 -0.006,-2.820733 2.90322,-4.791436 5.48284,-3.713601 3.29854,1.378217 3.29854,6.054619 0,7.432836 -0.86806,0.3627 -2.01541,0.380523 -2.87377,0.04464 z"
       id="path2759"
       inkscape:connector-curvature="0"
       transform="translate(-20.398,-11.5)" />
    <path
       style="fill:#e91e63;fill-opacity:1;stroke:none;stroke-width:0.20140707"
       d="m 141.19103,68.091047 c -0.98145,-0.295852 -1.80869,-1.051576 -2.2955,-2.09707 -0.61796,-1.327141 -0.60641,-2.20924 0.0461,-3.518642 1.88021,-3.773104 7.51916,-2.433224 7.51916,1.786643 0,2.750302 -2.59451,4.635505 -5.26976,3.829069 z"
       id="path2761"
       inkscape:connector-curvature="0"
       transform="translate(-20.398,-11.5)" />
    <path
       style="fill:#e91e63;fill-opacity:1;stroke:none;stroke-width:0.20140707"
       d="m 129.54854,80.372767 c -1.79232,-0.305867 -3.04391,-1.733582 -3.18098,-3.628621 -0.27184,-3.758153 3.99821,-5.751393 6.71787,-3.135865 2.86864,2.758821 0.42108,7.439926 -3.53689,6.764486 z"
       id="path2763"
       inkscape:connector-curvature="0"
       transform="translate(-20.398,-11.5)" />
    <path
       style="fill:#e91e63;fill-opacity:1;stroke:none;stroke-width:0.20140707"
       d="m 105.18119,80.370639 c -0.96948,-0.169052 -1.4258,-0.446911 -2.27182,-1.383363 -2.0634,-2.283937 -0.65869,-5.987682 2.48234,-6.545083 1.13737,-0.201837 2.64667,0.350739 3.48127,1.274548 2.61837,2.898219 0.16177,7.325858 -3.69179,6.653898 z"
       id="path2765"
       inkscape:connector-curvature="0"
       transform="translate(-20.398,-11.5)" />
    <path
       style="fill:#e91e63;fill-opacity:1;stroke:none;stroke-width:0.20140707"
       d="m 92.291133,92.339271 c -1.576008,-0.682646 -2.474174,-2.017769 -2.493804,-3.707037 -0.0432,-3.717145 4.480292,-5.40897 7.001277,-2.618541 0.788915,0.873234 1.026841,1.746644 0.883155,3.242007 -0.233769,2.432883 -3.1033,4.074325 -5.390628,3.083571 z"
       id="path2767"
       inkscape:connector-curvature="0"
       transform="translate(-20.398,-11.5)" />
    <path
       style="fill:#e91e63;fill-opacity:1;stroke:none;stroke-width:0.20140707"
       d="m 67.920877,92.339747 c -2.700799,-1.168027 -3.364852,-4.583472 -1.276775,-6.56688 2.939325,-2.791985 7.645226,-0.03899 6.629144,3.878107 -0.600592,2.315343 -3.19835,3.620331 -5.352369,2.688773 z"
       id="path2769"
       inkscape:connector-curvature="0"
       transform="translate(-20.398,-11.5)" />
    <path
       style="fill:#e91e63;fill-opacity:1;stroke:none;stroke-width:0.20140707"
       d="m 79.900853,104.47484 c -0.334381,-0.15159 -0.891244,-0.59826 -1.237473,-0.99259 -2.340748,-2.66597 -0.550048,-6.709954 2.953178,-6.669245 1.231343,0.01431 2.046496,0.361261 2.859366,1.217029 1.686012,1.774986 1.462855,4.427186 -0.504186,5.992226 -0.653357,0.51983 -0.965823,0.61869 -2.114774,0.66908 -0.832505,0.0365 -1.58068,-0.0463 -1.956111,-0.2165 z"
       id="path2771"
       inkscape:connector-curvature="0"
       transform="translate(-20.398,-11.5)" />
    <path
       style="fill:#e91e63;fill-opacity:1;stroke:none;stroke-width:0.20140707"
       d="m 68.02158,116.72797 c -3.012277,-1.06557 -3.499648,-5.25153 -0.827073,-7.10362 0.682761,-0.47316 0.992494,-0.5493 2.23446,-0.5493 1.193333,0 1.563904,0.0836 2.150156,0.48536 2.026969,1.3889 2.450996,4.10428 0.929212,5.95047 -1.130118,1.37103 -2.783614,1.81956 -4.486755,1.21709 z"
       id="path2773"
       inkscape:connector-curvature="0"
       transform="translate(-20.398,-11.5)" />
    <path
       style="fill:#e91e63;fill-opacity:1;stroke:none;stroke-width:0.20140707"
       d="m 79.904598,128.78039 c -2.818892,-1.48608 -3.126739,-5.29568 -0.559498,-6.92378 2.168319,-1.37511 4.68028,-0.72214 5.799519,1.50754 1.042384,2.07657 0.312285,4.30613 -1.757726,5.36769 -0.917585,0.47057 -2.636335,0.49453 -3.482295,0.0486 z"
       id="path2775"
       inkscape:connector-curvature="0"
       transform="translate(-20.398,-11.5)" />
    <path
       style="fill:#e91e63;fill-opacity:1;stroke:none;stroke-width:0.20140707"
       d="m 68.02158,141.1007 c -0.444496,-0.15588 -1.137608,-0.65267 -1.546222,-1.10826 -2.334394,-2.60279 -0.535698,-6.64784 2.956072,-6.64784 3.556904,0 5.322166,4.17677 2.85004,6.74345 -1.203991,1.25004 -2.621801,1.58708 -4.25989,1.01265 z"
       id="path2777"
       inkscape:connector-curvature="0"
       transform="translate(-20.398,-11.5)" />
    <path
       style="fill:#e91e63;fill-opacity:1;stroke:none;stroke-width:0.20140707"
       d="m 79.904598,153.15121 c -2.942685,-1.54861 -3.081486,-5.70832 -0.239464,-7.1765 1.285279,-0.66397 2.378171,-0.67978 3.659402,-0.0529 3.041737,1.48818 3.049136,5.80552 0.01231,7.18495 -0.995285,0.4521 -2.617737,0.47312 -3.432252,0.0445 z"
       id="path2779"
       inkscape:connector-curvature="0"
       transform="translate(-20.398,-11.5)" />
    <path
       style="fill:#e91e63;fill-opacity:1;stroke:none;stroke-width:0.20140707"
       d="m 68.124352,165.50619 c -1.059628,-0.33744 -2.306158,-1.69249 -2.588523,-2.81386 -0.851414,-3.38127 2.72427,-6.14767 5.827642,-4.50867 3.127788,1.6519 2.528731,6.42177 -0.925006,7.36517 -0.960764,0.26244 -1.380393,0.25471 -2.314113,-0.0426 z"
       id="path2781"
       inkscape:connector-curvature="0"
       transform="translate(-20.398,-11.5)" />
    <path
       style="fill:#e91e63;fill-opacity:1;stroke:none;stroke-width:0.20140707"
       d="m 92.45615,165.45298 c -1.172157,-0.36071 -2.244333,-1.54648 -2.570858,-2.84323 -0.623105,-2.47457 1.251649,-4.89489 3.791533,-4.89489 2.354823,0 3.867761,1.4001 4.01521,3.71575 0.130721,2.05293 -0.944473,3.58862 -2.883314,4.11822 -0.997865,0.27258 -1.179371,0.26518 -2.352571,-0.0959 z"
       id="path2783"
       inkscape:connector-curvature="0"
       transform="translate(-20.398,-11.5)" />
    <path
       style="fill:#e91e63;fill-opacity:1;stroke:none;stroke-width:0.20140707"
       d="m 104.27485,153.15065 c -2.66633,-1.40566 -3.11374,-5.06846 -0.83171,-6.80905 2.08416,-1.58966 4.94648,-0.90456 6.10489,1.46123 0.66252,1.35305 0.56164,2.74639 -0.28737,3.96923 -1.05171,1.51479 -3.46284,2.18147 -4.98581,1.37859 z"
       id="path2785"
       inkscape:connector-curvature="0"
       transform="translate(-20.398,-11.5)" />
    <path
       style="fill:#e91e63;fill-opacity:1;stroke:none;stroke-width:0.20140707"
       d="m 92.416965,141.105 c -1.706448,-0.60826 -2.955173,-2.70456 -2.633247,-4.42058 0.668404,-3.5629 5.307359,-4.55475 7.351322,-1.57178 0.686755,1.00225 0.787971,2.90314 0.214443,4.02735 -0.468609,0.91855 -1.379569,1.68341 -2.419761,2.03168 -0.883233,0.29571 -1.545391,0.27814 -2.512757,-0.0667 z"
       id="path2787"
       inkscape:connector-curvature="0"
       transform="translate(-20.398,-11.5)" />
    <path
       style="fill:#e91e63;fill-opacity:1;stroke:none;stroke-width:0.20140707"
       d="m 104.27485,128.79832 c -1.59323,-0.82862 -2.39958,-2.22065 -2.276,-3.92913 0.24109,-3.33302 4.0499,-4.93246 6.53981,-2.74628 2.86071,2.51173 1.19694,6.99532 -2.59417,6.9909 -0.58598,-6.8e-4 -1.33731,-0.14265 -1.66964,-0.31549 z"
       id="path2789"
       inkscape:connector-curvature="0"
       transform="translate(-20.398,-11.5)" />
    <path
       style="fill:#e91e63;fill-opacity:1;stroke:none;stroke-width:0.20140707"
       d="m 92.291133,116.70953 c -1.581119,-0.68486 -2.472668,-2.01552 -2.49689,-3.72667 -0.05105,-3.60608 4.382223,-5.39726 6.865141,-2.77373 0.806984,0.85268 1.06974,1.54399 1.06974,2.8145 0,2.82558 -2.894605,4.78756 -5.437991,3.6859 z"
       id="path2791"
       inkscape:connector-curvature="0"
       transform="translate(-20.398,-11.5)" />
    <path
       style="fill:#e91e63;fill-opacity:1;stroke:none;stroke-width:0.20140707"
       d="m 104.37556,104.51908 c -0.27694,-0.11011 -0.76106,-0.44424 -1.07584,-0.74251 -2.70759,-2.5657 -1.00262,-7.018604 2.66747,-6.966651 1.25106,0.01771 2.06419,0.362313 2.87899,1.220115 2.46952,2.599846 0.6749,6.744856 -2.90169,6.701996 -0.58598,-0.007 -1.292,-0.10285 -1.56893,-0.21295 z"
       id="path2793"
       inkscape:connector-curvature="0"
       transform="translate(-20.398,-11.5)" />
    <path
       style="fill:#e91e63;fill-opacity:1;stroke:none;stroke-width:0.20140707"
       d="m 116.55896,116.66746 c -1.63254,-0.76682 -2.71117,-2.66145 -2.41474,-4.24154 0.38753,-2.06575 1.75647,-3.29125 3.79944,-3.40133 1.45672,-0.0785 2.42497,0.38015 3.42571,1.62272 0.52719,0.6546 0.62681,0.96364 0.68167,2.11477 0.0532,1.1155 -0.0156,1.48573 -0.39858,2.1454 -1.03183,1.77738 -3.35066,2.57862 -5.0935,1.75998 z"
       id="path2795"
       inkscape:connector-curvature="0"
       transform="translate(-20.398,-11.5)" />
    <path
       style="fill:#e91e63;fill-opacity:1;stroke:none;stroke-width:0.20140707"
       d="m 128.64511,104.46532 c -0.88302,-0.3854 -2.0694,-1.7914 -2.22887,-2.64149 -0.51896,-2.766276 1.25886,-5.024489 3.94083,-5.005709 1.29892,0.0091 2.11969,0.385065 2.98022,1.365155 1.31185,1.494117 1.35042,3.421844 0.10211,5.103184 -0.97303,1.31055 -3.22427,1.8641 -4.79429,1.17886 z"
       id="path2797"
       inkscape:connector-curvature="0"
       transform="translate(-20.398,-11.5)" />
    <path
       style="fill:#e91e63;fill-opacity:1;stroke:none;stroke-width:0.20140707"
       d="m 116.55896,92.284755 c -1.63674,-0.743556 -2.69339,-2.609882 -2.41398,-4.263727 0.20336,-1.203646 1.13177,-2.49008 2.15434,-2.985097 2.72443,-1.318872 5.80006,0.58816 5.80006,3.596303 0,2.920609 -2.91761,4.84404 -5.54042,3.652521 z"
       id="path2799"
       inkscape:connector-curvature="0"
       transform="translate(-20.398,-11.5)" />
    <path
       style="fill:#e91e63;fill-opacity:1;stroke:none;stroke-width:0.20140707"
       d="m 140.6084,92.099589 c -0.86901,-0.453976 -1.18028,-0.765247 -1.63426,-1.634256 -0.68895,-1.3188 -0.70663,-2.216331 -0.0706,-3.582447 1.76845,-3.798259 7.58085,-2.49846 7.56164,1.690973 -0.008,1.72118 -0.92933,3.135616 -2.45909,3.774793 -1.11679,0.466624 -2.17643,0.388949 -3.39772,-0.249063 z"
       id="path2801"
       inkscape:connector-curvature="0"
       transform="translate(-20.398,-11.5)" />
    <path
       style="fill:#e91e63;fill-opacity:1;stroke:none;stroke-width:0.20140707"
       d="m 140.92921,116.66746 c -2.8943,-1.35949 -3.30355,-5.16179 -0.74977,-6.96604 2.61125,-1.84485 6.2902,0.0562 6.2902,3.25037 0,2.85835 -3.0339,4.89302 -5.54043,3.71567 z"
       id="path2803"
       inkscape:connector-curvature="0"
       transform="translate(-20.398,-11.5)" />
    <path
       style="fill:#e91e63;fill-opacity:1;stroke:none;stroke-width:0.20140707"
       d="m 128.64511,128.79897 c -1.52365,-0.79082 -2.31618,-2.03701 -2.31618,-3.642 0,-3.60721 4.22382,-5.36537 6.77084,-2.81835 1.54517,1.54517 1.67155,3.52414 0.33963,5.31809 -0.9896,1.33288 -3.34555,1.89419 -4.79429,1.14226 z"
       id="path2805"
       inkscape:connector-curvature="0"
       transform="translate(-20.398,-11.5)" />
    <path
       style="fill:#e91e63;fill-opacity:1;stroke:none;stroke-width:0.20140707"
       d="m 116.76209,141.09822 c -1.66552,-0.58916 -2.92586,-2.66033 -2.61787,-4.30205 0.45854,-2.44424 2.53641,-3.83284 5.03419,-3.36426 0.87332,0.16384 2.26736,1.35958 2.64965,2.27276 0.66898,1.598 0.1246,3.77658 -1.18702,4.7504 -1.27116,0.94378 -2.46809,1.14223 -3.87895,0.64315 z"
       id="path2807"
       inkscape:connector-curvature="0"
       transform="translate(-20.398,-11.5)" />
    <path
       style="fill:#e91e63;fill-opacity:1;stroke:none;stroke-width:0.20140707"
       d="m 128.64511,153.18053 c -1.50393,-0.80872 -2.31881,-2.09641 -2.31176,-3.65309 0.0165,-3.65225 4.19474,-5.39024 6.76922,-2.81577 1.8212,1.82121 1.59278,4.57981 -0.50175,6.05944 -1.04541,0.73849 -2.97278,0.93798 -3.95571,0.40942 z"
       id="path2809"
       inkscape:connector-curvature="0"
       transform="translate(-20.398,-11.5)" />
    <path
       style="fill:#e91e63;fill-opacity:1;stroke:none;stroke-width:0.20140707"
       d="m 141.13235,141.10893 c -1.46144,-0.5364 -2.71378,-2.3137 -2.71787,-3.85718 -0.002,-0.66755 0.41245,-1.73199 0.96153,-2.47088 1.16069,-1.56193 3.91707,-1.91711 5.42892,-0.69957 1.24057,0.99907 1.69295,1.96324 1.61324,3.43836 -0.054,0.99847 -0.18928,1.42661 -0.66274,2.09683 -1.04135,1.47412 -2.97354,2.09788 -4.62308,1.49244 z"
       id="path2811"
       inkscape:connector-curvature="0"
       transform="translate(-20.398,-11.5)" />
    <path
       style="fill:#e91e63;fill-opacity:1;stroke:none;stroke-width:0.20140707"
       d="m 116.76209,165.4791 c -1.06769,-0.39176 -2.22943,-1.6597 -2.52587,-2.75675 -0.47772,-1.76789 0.42588,-3.79021 2.06778,-4.62785 1.1242,-0.57353 3.02509,-0.47231 4.02735,0.21444 1.24498,0.85308 1.66733,1.69743 1.66733,3.33331 0,1.23313 -0.0794,1.55926 -0.5541,2.27661 -0.96506,1.4583 -3.05891,2.15599 -4.68249,1.56024 z"
       id="path2813"
       inkscape:connector-curvature="0"
       transform="translate(-20.398,-11.5)" />
    <path
       style="fill:#e91e63;fill-opacity:1;stroke:none;stroke-width:0.20140707"
       d="m 141.13235,165.4791 c -2.4564,-0.90132 -3.42884,-4.02897 -1.90622,-6.13089 0.86978,-1.2007 1.97064,-1.69541 3.54906,-1.5949 1.40669,0.0896 1.95967,0.39687 2.97786,1.65489 0.55995,0.69183 0.61588,0.89318 0.61588,2.21715 0,1.25157 -0.0779,1.57388 -0.55409,2.29351 -0.96506,1.4583 -3.05891,2.15599 -4.68249,1.56024 z"
       id="path2815"
       inkscape:connector-curvature="0"
       transform="translate(-20.398,-11.5)" />
  </g>
</svg>
