<?xml version="1.0" encoding="UTF-8" standalone="no"?>
<svg
   xmlns:dc="http://purl.org/dc/elements/1.1/"
   xmlns:cc="http://creativecommons.org/ns#"
   xmlns:rdf="http://www.w3.org/1999/02/22-rdf-syntax-ns#"
   xmlns:svg="http://www.w3.org/2000/svg"
   xmlns="http://www.w3.org/2000/svg"
   xmlns:sodipodi="http://sodipodi.sourceforge.net/DTD/sodipodi-0.dtd"
   xmlns:inkscape="http://www.inkscape.org/namespaces/inkscape"
   width="211.795"
   height="268.88199"
   viewBox="0 0 211.795 268.88199"
   version="1.1"
   id="svg3834"
   sodipodi:docname="blood-bag.svg"
   inkscape:version="0.92.4 (5da689c313, 2019-01-14)">
  <metadata
     id="metadata3838">
    <rdf:RDF>
      <cc:Work
         rdf:about="">
        <dc:format>image/svg+xml</dc:format>
        <dc:type
           rdf:resource="http://purl.org/dc/dcmitype/StillImage" />
        <dc:title></dc:title>
      </cc:Work>
    </rdf:RDF>
  </metadata>
  <sodipodi:namedview
     pagecolor="#ffffff"
     bordercolor="#666666"
     borderopacity="1"
     objecttolerance="10"
     gridtolerance="10"
     guidetolerance="10"
     inkscape:pageopacity="0"
     inkscape:pageshadow="2"
     inkscape:window-width="1920"
     inkscape:window-height="1018"
     id="namedview3836"
     showgrid="false"
     inkscape:snap-page="true"
     inkscape:snap-bbox="true"
     inkscape:zoom="2.2285701"
     inkscape:cx="100.207"
     inkscape:cy="233.50307"
     inkscape:window-x="0"
     inkscape:window-y="34"
     inkscape:window-maximized="1"
     inkscape:current-layer="g3832" />
  <defs
     id="defs3794">
    <style
       id="style3792">.a{fill:#f8f8f8;stroke:#cbcbcb;}.b{fill:#c6c6c6;}.c{fill:#b02721;}.d{fill:#b8b8b8;}.e{fill:#efedee;}.f{fill:#e34b4c;}.g{fill:#3a484a;}.h{fill:#d2d2d2;}</style>
  </defs>
  <g
     transform="translate(37.676,64.587002)"
     id="g3832">
    <g
       transform="translate(0.5,-57.054094)"
       id="g3804">
      <path
         class="b"
         d="M 110.848,23.843 H 83.335 a 17.494,17.494 0 1 0 -32.6,0 H 23.219 A 22.717,22.717 0 0 0 0.5,46.562 V 63.918 L 67.034,77.884 133.569,63.917 V 46.562 A 22.718,22.718 0 0 0 110.848,23.843 Z m -43.814,0 a 6.349,6.349 0 1 1 6.349,-6.349 6.349,6.349 0 0 1 -6.349,6.349 z m 0,0"
         transform="translate(-0.5)"
         id="path3798"
         inkscape:connector-curvature="0"
         style="fill:#c6c6c6" />
      <path
         class="b"
         d="M 33.212,334.3 0.5,346.925 v 17.354 A 22.718,22.718 0 0 0 23.219,387 h 26.837 v 16.118 h 10.855 v -39.784 z m 0,0"
         transform="translate(-0.5,-204.845)"
         id="path3800"
         inkscape:connector-curvature="0"
         style="fill:#c6c6c6" />
      <path
         class="b"
         d="m 218.327,334.3 -30.206,28.51 v 40.3 h 10.855 V 387 h 26.837 a 22.718,22.718 0 0 0 22.719,-22.721 v -17.354 z m 0,0"
         transform="translate(-115.465,-204.845)"
         id="path3802"
         inkscape:connector-curvature="0"
         style="fill:#c6c6c6" />
    </g>
    <path
       class="c"
       d="m 103.362,72.40091 h -70.15 l -19.105,12.62 v 17.354 a 9.111,9.111 0 0 0 9.114,9.113 h 28.971 a 8.719,8.719 0 0 1 8.719,8.721 v 21.005 h 12.247 v -21.001 a 8.719,8.719 0 0 1 8.719,-8.721 h 28.971 a 9.111,9.111 0 0 0 9.113,-9.113 v -17.353 z m 0,0"
       id="path3806"
       style="fill:#e91e63;fill-opacity:1"
       inkscape:connector-curvature="0" />
    <path
       class="c"
       d="M 110.848,-19.60409 H 23.219 a 9.111,9.111 0 0 0 -9.113,9.113 v 17.355 l 52.928,13.967 52.926,-13.967 v -17.355 a 9.111,9.111 0 0 0 -9.113,-9.113 z m 0,0"
       id="path3808"
       style="fill:#e91e63;fill-opacity:1"
       inkscape:connector-curvature="0" />
    <path
       class="d"
       d="m 0.5,6.86391 h 133.067 v 78.163 H 0.5 Z m 0,0"
       id="path3810"
       inkscape:connector-curvature="0"
       style="fill:#b8b8b8" />
    <path
       class="e"
       d="m 16.882,34.81191 h 32.4 a 2.992,2.992 0 1 0 0,-5.984 h -32.4 a 2.992,2.992 0 1 0 0,5.984 z m 0,0"
       id="path3812"
       inkscape:connector-curvature="0"
       style="fill:#efedee" />
    <path
       class="e"
       d="m 16.882,48.93591 h 32.4 a 2.992,2.992 0 1 0 0,-5.984 h -32.4 a 2.992,2.992 0 1 0 0,5.984 z m 0,0"
       id="path3814"
       inkscape:connector-curvature="0"
       style="fill:#efedee" />
    <path
       class="e"
       d="m 80.383,57.07791 h -63.5 a 2.992,2.992 0 0 0 0,5.984 h 63.5 a 2.992,2.992 0 0 0 0,-5.984 z m 0,0"
       id="path3816"
       inkscape:connector-curvature="0"
       style="fill:#efedee" />
    <path
       class="f"
       d="m 116.068,57.07691 h -3.487 v -3.487 a 2.992,2.992 0 1 0 -5.984,0 v 3.487 h -3.488 a 2.992,2.992 0 1 0 0,5.984 h 3.488 v 3.488 a 2.992,2.992 0 0 0 5.984,0 v -3.488 h 3.487 a 2.992,2.992 0 1 0 0,-5.984 z m 0,0"
       id="path3818"
       style="fill:#e91e63;fill-opacity:1"
       inkscape:connector-curvature="0" />
    <path
       class="g"
       d="m 67.938,36.22591 a 2.992,2.992 0 0 0 2.992,-2.992 v -4.585 a 2.992,2.992 0 0 0 -5.984,0 v 4.585 a 2.992,2.992 0 0 0 2.992,2.992 z m 0,0"
       id="path3820"
       inkscape:connector-curvature="0"
       style="fill:#3a484a" />
    <path
       class="g"
       d="m 118.612,25.65691 a 2.992,2.992 0 0 0 -2.992,2.992 v 4.585 a 2.992,2.992 0 1 0 5.984,0 v -4.585 a 2.993,2.993 0 0 0 -2.992,-2.992 z m 0,0"
       id="path3822"
       inkscape:connector-curvature="0"
       style="fill:#3a484a" />
    <path
       class="g"
       d="m 101.781,34.88491 a 2.9921514,2.9921514 0 0 0 -4.506,-3.938 5.465,5.465 0 0 1 -8,0 2.992,2.992 0 1 0 -4.5,3.938 11.44,11.44 0 0 0 17.013,0 z m 0,0"
       id="path3824"
       inkscape:connector-curvature="0"
       style="fill:#3a484a" />
    <path
       class="h"
       d="m 119.96,85.02591 h 13.608 v 12.645 H 119.96 Z m 0,0"
       id="path3828"
       inkscape:connector-curvature="0"
       style="fill:#d2d2d2" />
    <path
       class="h"
       d="m 0.5,85.02591 h 13.607 v 12.645 H 0.5 Z m 0,0"
       id="path3830"
       inkscape:connector-curvature="0"
       style="fill:#d2d2d2" />
  </g>
</svg>
