<svg xmlns="http://www.w3.org/2000/svg" width="211.795" height="211.795" viewBox="0 0 211.795 211.795"><defs><style>.a{fill:#f8f8f8;stroke:#cbcbcb;}.b{fill:#ffcda8;}.c{fill:#efb691;}.d{fill:#ff5b47;}.e{fill:#fff;}</style></defs><g transform="translate(0.5 0.5)"><path class="a" d="M210.8,105.4a104.941,104.941,0,0,1-20.168,62.021,106.424,106.424,0,0,1-8.268,9.989A105.4,105.4,0,0,1,16.21,161.577q-2.052-3.226-3.854-6.617-.981-1.832-1.889-3.712-1.394-2.885-2.616-5.864A105.465,105.465,0,0,1,138.247,5.223q2.09.684,4.151,1.458a103.976,103.976,0,0,1,13.349,6.1c.237.129.469.258.7.392A105.35,105.35,0,0,1,210.8,105.4Z" transform="translate(0 0)"/><path class="b" d="M144.394,223.578,67.673,300.3a105.827,105.827,0,0,1-44.1-43.807q-.981-1.832-1.889-3.712-1.394-2.885-2.616-5.864L93.4,172.587Z" transform="translate(-11.219 -101.532)"/><path class="c" d="M105.676,184.859,27.429,263.107q-2.052-3.226-3.854-6.617-.981-1.832-1.889-3.712-1.394-2.885-2.616-5.864L93.4,172.586Z" transform="translate(-11.219 -101.531)"/><path class="b" d="M289.9,107.979c-6.356,1.821-15.539,11-15.591,11.049,0,0-35.544,35.209-61.095,9.658l-23-23c-18.857-18.857-10.21-48.809,6.4-65.414l36.88-36.88A10.92,10.92,0,1,1,248.93,18.834L264.566,3.2a10.92,10.92,0,1,1,15.444,15.444L292.05,6.6A10.923,10.923,0,1,1,307.5,22.048l-9.724,9.724a10.918,10.918,0,1,1,15.44,15.441L271.788,88.638a54.093,54.093,0,0,1,11.243-4.627,12.466,12.466,0,1,1,6.866,23.968Z" transform="translate(-105.617 0)"/><g transform="translate(73.915 0.062)"><path class="c" d="M195.459,111.214l-5.251-5.251C171.352,87.107,180,57.155,196.6,40.55l36.88-36.88a10.922,10.922,0,0,1,17.61,3.085,10.927,10.927,0,0,0-12.359,2.166L201.855,45.8C185.249,62.406,176.6,92.358,195.459,111.214Z" transform="translate(-179.531 -0.341)"/><path class="c" d="M296.8,39.4,332.733,3.467a11.086,11.086,0,0,1,15.425-.374,10.836,10.836,0,0,1,2.365,3.279,10.927,10.927,0,0,0-12.359,2.166L302.05,44.651a3.713,3.713,0,0,1-5.251,0h0A3.714,3.714,0,0,1,296.8,39.4Z" transform="translate(-247.88 -0.151)"/><path class="c" d="M342.161,56.217,387.083,11.3a11.087,11.087,0,0,1,15.425-.374,10.837,10.837,0,0,1,2.365,3.279,10.927,10.927,0,0,0-12.359,2.166l-45.1,45.1a3.713,3.713,0,0,1-5.251,0h0A3.714,3.714,0,0,1,342.161,56.217Z" transform="translate(-274.566 -4.757)"/><path class="c" d="M373.573,110.144l37.712-37.712a11.087,11.087,0,0,1,15.425-.374,10.837,10.837,0,0,1,2.365,3.279A10.927,10.927,0,0,0,416.716,77.5l-37.892,37.892a3.713,3.713,0,0,1-5.251,0h0A3.712,3.712,0,0,1,373.573,110.144Z" transform="translate(-293.045 -40.722)"/><path class="c" d="M356.831,214.473a12.462,12.462,0,0,0-13.9-5.211A53.426,53.426,0,0,0,319.3,223.317a28.762,28.762,0,0,0-36.637-3.363,2.969,2.969,0,0,1-3.791-.329h0a2.968,2.968,0,0,1,.259-4.422,28.762,28.762,0,0,1,38.2,2.207,53.421,53.421,0,0,1,23.631-14.055,12.475,12.475,0,0,1,15.871,11.119Z" transform="translate(-237.462 -119.407)"/></g><path class="d" d="M256.773,363.3a106.423,106.423,0,0,1-8.268,9.989l-17.642-17.642a20.617,20.617,0,0,0-29.159,0L169.654,387.7a33.528,33.528,0,0,1-47.416-47.416l7.313-7.313,9.129,9.129-7.313,7.313a20.618,20.618,0,1,0,29.159,29.158l32.049-32.049a33.572,33.572,0,0,1,47.416,0Z" transform="translate(-66.145 -195.882)"/><g transform="translate(57.596 128.755)"><rect class="e" width="10.898" height="20.936" transform="translate(0 8.331) rotate(-45)"/><rect class="e" width="10.898" height="8.907" transform="translate(9.127 7.706) rotate(-45)"/></g><path class="c" d="M192.21,283.132l-11.421,11.421,6.3,6.3,11.421-11.421a4.454,4.454,0,0,0,0-6.3h0A4.454,4.454,0,0,0,192.21,283.132Z" transform="translate(-106.357 -165.797)"/></g></svg>