<?xml version="1.0" encoding="UTF-8" standalone="no"?>
<svg
   xmlns:dc="http://purl.org/dc/elements/1.1/"
   xmlns:cc="http://creativecommons.org/ns#"
   xmlns:rdf="http://www.w3.org/1999/02/22-rdf-syntax-ns#"
   xmlns:svg="http://www.w3.org/2000/svg"
   xmlns="http://www.w3.org/2000/svg"
   xmlns:sodipodi="http://sodipodi.sourceforge.net/DTD/sodipodi-0.dtd"
   xmlns:inkscape="http://www.inkscape.org/namespaces/inkscape"
   width="211.795"
   height="268.88199"
   viewBox="0 0 211.795 268.88199"
   version="1.1"
   id="svg3096"
   sodipodi:docname="circle.svg"
   inkscape:version="0.92.4 (5da689c313, 2019-01-14)">
  <metadata
     id="metadata3100">
    <rdf:RDF>
      <cc:Work
         rdf:about="">
        <dc:format>image/svg+xml</dc:format>
        <dc:type
           rdf:resource="http://purl.org/dc/dcmitype/StillImage" />
        <dc:title></dc:title>
      </cc:Work>
    </rdf:RDF>
  </metadata>
  <sodipodi:namedview
     pagecolor="#ffffff"
     bordercolor="#666666"
     borderopacity="1"
     objecttolerance="10"
     gridtolerance="10"
     guidetolerance="10"
     inkscape:pageopacity="0"
     inkscape:pageshadow="2"
     inkscape:window-width="1920"
     inkscape:window-height="1018"
     id="namedview3098"
     showgrid="false"
     inkscape:zoom="3.1516741"
     inkscape:cx="116.37775"
     inkscape:cy="164.26692"
     inkscape:window-x="0"
     inkscape:window-y="34"
     inkscape:window-maximized="1"
     inkscape:current-layer="svg3096"
     inkscape:snap-page="true"
     inkscape:snap-bbox="true" />
  <defs
     id="defs3062">
    <style
       id="style3060">.a{fill:#f8f8f8;stroke:#cbcbcb;}.b{fill:#ffcda8;}.c{fill:#efb691;}.d{fill:#ff5b47;}.e{fill:#fff;}</style>
  </defs>
  <path
     style="fill:#f8f8f8;stroke:#cbcbcb"
     inkscape:connector-curvature="0"
     id="path3064"
     d="m 211.795,105.92323 a 104.941,104.941 0 0 1 -20.168,62.021 106.424,106.424 0 0 1 -8.268,9.989 105.4,105.4 0 0 1 -166.154013,-15.833 q -2.052,-3.226 -3.854,-6.617 -0.980999,-1.832 -1.888999,-3.712 -1.394,-2.885 -2.6159995,-5.864 A 105.465,105.465 0 0 1 139.242,5.7462356 q 2.09,0.6839999 4.151,1.4579999 a 103.976,103.976 0 0 1 13.349,6.1000005 c 0.237,0.129 0.469,0.258 0.7,0.392 a 105.35,105.35 0 0 1 54.353,92.226994 z"
     class="a" />
</svg>
