<svg xmlns="http://www.w3.org/2000/svg" width="9.035" height="9.035" viewBox="0 0 9.035 9.035"><defs><style>.a{fill:#76848b;}</style></defs><g transform="translate(-0.001)"><path class="a" d="M4.519,0A4.518,4.518,0,1,0,9.036,4.518,4.523,4.523,0,0,0,4.519,0Zm0,8.417a3.9,3.9,0,1,1,3.9-3.9A3.9,3.9,0,0,1,4.519,8.417Z" transform="translate(0)"/><path class="a" d="M101.825,46.4H99.679V44.058a.309.309,0,0,0-.618,0v2.654a.309.309,0,0,0,.309.309h2.455a.309.309,0,0,0,0-.618Z" transform="translate(-94.976 -41.945)"/></g></svg>