<svg xmlns="http://www.w3.org/2000/svg" width="19.468" height="16.583" viewBox="0 0 19.468 16.583"><defs><style>.a{fill:#76848b;stroke:#76848b;stroke-width:0.5px;}</style></defs><g transform="translate(0.25 0.25)"><g transform="translate(0)"><path class="a" d="M12.383,77.864H5.639a.34.34,0,0,0-.346.359.361.361,0,0,0,.346.382h6.745a5.844,5.844,0,0,1,1.206,11.562.37.37,0,0,0-.294.363v2.153L11.013,90.4a.371.371,0,0,0-.262-.109H6.584a5.845,5.845,0,0,1-5.11-8.679.37.37,0,1,0-.647-.36,6.586,6.586,0,0,0,5.758,9.781H10.6L13.4,93.839a.37.37,0,0,0,.632-.262V90.823a6.585,6.585,0,0,0-1.652-12.959Z" transform="translate(0 -77.864)"/></g></g></svg>