<svg xmlns="http://www.w3.org/2000/svg" width="6.904" height="9.795" viewBox="0 0 6.904 9.795"><defs><style>.a{fill:#76848b;}</style></defs><g transform="translate(-826.078 -319)"><g transform="translate(826.078 319)"><g transform="translate(0 0)"><path class="a" d="M320.164,7.666c.134-.144.273-.3.411-.465a6.013,6.013,0,0,0,1.656-3.749A3.452,3.452,0,0,0,315.6,2.108a.264.264,0,0,0,.486.206A2.925,2.925,0,0,1,321.7,3.452c0,2.18-2.289,4.27-2.924,4.807-.14-.118-.36-.312-.618-.565a.264.264,0,0,0-.117-.117c-.911-.917-2.188-2.494-2.188-4.125a.264.264,0,0,0-.528,0A6.013,6.013,0,0,0,316.983,7.2c.139.166.277.321.411.465-.68.2-1.073.552-1.073.971,0,.353.287.665.807.877a4.985,4.985,0,0,0,3.3,0c.52-.212.807-.523.807-.877C321.237,8.219,320.844,7.87,320.164,7.666Zm-1.385,1.6c-1.249,0-1.93-.416-1.93-.63,0-.139.31-.394.972-.535a10.306,10.306,0,0,0,.8.707.264.264,0,0,0,.323,0,10.3,10.3,0,0,0,.8-.707,2.418,2.418,0,0,1,.729.264c.152.093.243.194.243.271C320.709,8.851,320.028,9.267,318.779,9.267Z" transform="translate(-315.327 0)"/></g></g><g transform="translate(827.995 320.917)"><path class="a" d="M371.394,54.532a1.535,1.535,0,1,0,1.535,1.535A1.537,1.537,0,0,0,371.394,54.532Zm0,2.543a1.008,1.008,0,1,1,1.008-1.008A1.009,1.009,0,0,1,371.395,57.075Z" transform="translate(-369.859 -54.532)"/></g></g></svg>