<svg xmlns="http://www.w3.org/2000/svg" width="13.56" height="17.587" viewBox="0 0 13.56 17.587"><defs><style>.a{fill:#616161;stroke:#76848b;stroke-width:0.8px;}</style></defs><g transform="translate(0.427 0.465)"><path class="a" d="M159.836,210a2.338,2.338,0,1,0,2.332,2.338A2.337,2.337,0,0,0,159.836,210Zm0,4.014a1.676,1.676,0,1,1,1.672-1.676A1.676,1.676,0,0,1,159.836,214.019Z" transform="translate(-149.924 -197.958)"/><path class="a" d="M.33,6.037a.328.328,0,0,0,.233-.1L2.53,3.969a2.339,2.339,0,1,0-.394-.541L.1,5.472a.331.331,0,0,0,.233.565ZM4.2.661A1.676,1.676,0,1,1,2.524,2.337,1.678,1.678,0,0,1,4.2.661Z" transform="translate(6.227 0) rotate(9)"/><path class="a" d="M5.794,6.058,3.85,4.109a2.328,2.328,0,1,0-1.519.566,2.312,2.312,0,0,0,.948-.2L5.327,6.526a.33.33,0,0,0,.467-.468ZM.66,2.338A1.672,1.672,0,1,1,2.332,4.014,1.677,1.677,0,0,1,.66,2.338Z" transform="matrix(0.998, -0.07, 0.07, 0.998, 0, 6.474)"/></g></svg>