<svg xmlns="http://www.w3.org/2000/svg" width="47.5" height="47.5" viewBox="0 0 47.5 47.5">
    <defs>
        <style>.a{fill:#a2a2a2;}</style>
        <linearGradient id="a" x1="0.5" x2="0.5" y2="1" gradientUnits="objectBoundingBox">
            <stop offset="0" stop-color="#ff217a"/>
            <stop offset="1" stop-color="#ff4d4d"/>
        </linearGradient>
    </defs>
    <path class="a"
          d="M23.75,47.5A23.75,23.75,0,1,1,47.5,23.75,23.777,23.777,0,0,1,23.75,47.5Zm0-46.061A22.311,22.311,0,1,0,46.061,23.75,22.335,22.335,0,0,0,23.75,1.439Z"/>
    <path class="a"
          d="M20.788,45.31a23.579,23.579,0,0,1-13.745-4.4.719.719,0,0,1,.167-1.261c5.968-2.209,6.931-4,6.931-7.44a2.493,2.493,0,0,0-.573-1.747,9.482,9.482,0,0,1-1.625-4.23c-.069-.366-.128-.394-.455-.553-.872-.42-1.674-1.025-1.884-3.783a3.333,3.333,0,0,1,.842-2.458c-.083-.475-.22-1.294-.348-2.186-.652-4-.681-8.893,4.941-11.168,4.9-1.986,8.811-.9,10.038.393A6.445,6.445,0,0,1,29.75,8.54c2.4,2.792,1.637,9.159,1.375,10.885a3.229,3.229,0,0,1,.848,2.411c-.21,2.813-1.012,3.419-1.886,3.837-.328.158-.387.186-.455.553a9.486,9.486,0,0,1-1.624,4.23,2.484,2.484,0,0,0-.573,1.747c0,3.437.963,5.231,6.931,7.44a.719.719,0,0,1,.167,1.261A23.579,23.579,0,0,1,20.788,45.31ZM9.01,40.489a22.207,22.207,0,0,0,23.557,0c-5-2.053-6.571-4.122-6.571-8.284a3.862,3.862,0,0,1,.825-2.561,8.163,8.163,0,0,0,1.4-3.679,1.957,1.957,0,0,1,1.245-1.588c.448-.214.908-.436,1.071-2.6,0-1.1-.5-1.4-.515-1.411a.767.767,0,0,1-.38-.773c.357-1.913.944-7.879-.98-10.12a5.034,5.034,0,0,0-3.78-1.555,1.2,1.2,0,0,1-.193-.023,1.149,1.149,0,0,1-.6-.377c-.392-.671-3.8-2.019-8.507-.115-4.651,1.883-4.661,5.919-4.058,9.618.2,1.378.416,2.568.417,2.574a.72.72,0,0,1-.407.783h0s-.488.3-.488,1.451c.161,2.1.623,2.326,1.069,2.541a1.958,1.958,0,0,1,1.247,1.588,8.15,8.15,0,0,0,1.4,3.679,3.853,3.853,0,0,1,.826,2.561C15.582,36.368,14.011,38.438,9.01,40.489Z"
          transform="translate(2.962 2.19)"/>
</svg>
