<svg xmlns="http://www.w3.org/2000/svg" xmlns:xlink="http://www.w3.org/1999/xlink"
     width="47.5" height="47.5"
     viewBox="0 0 47.5 47.5">
    <defs>
        <style>.a{fill:#a2a2a2;}</style>
        <linearGradient id="a" x1="0.5" x2="0.5" y2="1" gradientUnits="objectBoundingBox">
            <stop offset="0" stop-color="#ff217a"/>
            <stop offset="1" stop-color="#ff4d4d"/>
        </linearGradient>
    </defs>
    <path class="a"
          d="M23.75,47.5A23.75,23.75,0,1,1,47.5,23.75,23.777,23.777,0,0,1,23.75,47.5Zm0-46.061A22.311,22.311,0,1,0,46.061,23.75,22.335,22.335,0,0,0,23.75,1.439Z"/>
    <path class="a"
          d="M21.236,45.31A23.764,23.764,0,0,1,5.977,39.748a.72.72,0,0,1,.167-1.208c.594-.266,1.248-.534,1.981-.8,3.787-1.379,5.655-2.591,6.459-4.265C7.5,31.712,6.67,27.345,6.637,27.152a.723.723,0,0,1,.317-.725c.142-.094,3.532-2.417,3.532-8.364,0-6.467,1.278-13.077,10.751-13.077S31.987,11.6,31.987,18.062c0,5.948,3.39,8.271,3.535,8.367a.728.728,0,0,1,.314.723c-.033.191-.869,4.56-7.947,6.323.8,1.674,2.672,2.885,6.457,4.265.733.266,1.388.534,1.981.8a.72.72,0,0,1,.167,1.208A23.758,23.758,0,0,1,21.236,45.31Zm-13.4-5.92a22.275,22.275,0,0,0,26.8,0c-.249-.1-.51-.2-.78-.3-4.808-1.752-6.873-3.36-7.623-5.935a.721.721,0,0,1,.546-.905C32.372,31.1,33.91,28.339,34.3,27.3c-1.077-.907-3.75-3.717-3.75-9.238,0-6.985-1.583-11.638-9.311-11.638s-9.311,4.652-9.311,11.638c0,5.522-2.674,8.331-3.75,9.238.386,1.032,1.922,3.8,7.519,4.95a.718.718,0,0,1,.547.9c-.748,2.575-2.814,4.184-7.623,5.936h0C8.347,39.192,8.088,39.29,7.837,39.389Z"
          transform="translate(2.514 2.19)"/>
</svg>
