<svg xmlns="http://www.w3.org/2000/svg" width="237" height="44" viewBox="0 0 237 44"><defs><style>.a{fill:#2d509b;}.b{fill:#fff;}</style></defs><g transform="translate(-62 -377)"><rect class="a" width="237" height="44" transform="translate(62 377)"/><path class="b" d="M28.041,0,26.554,0a2.61,2.61,0,0,0-2.749,2.821v1.3H22.311a.234.234,0,0,0-.234.234V6.24a.234.234,0,0,0,.234.234h1.495v4.755a.234.234,0,0,0,.234.234h1.95a.234.234,0,0,0,.234-.234V6.474H27.97A.234.234,0,0,0,28.2,6.24V4.355a.234.234,0,0,0-.234-.234H26.223v-1.1c0-.53.126-.8.817-.8h1a.234.234,0,0,0,.234-.234V.236A.234.234,0,0,0,28.041,0Z" transform="translate(73.629 393.559)"/></g></svg>