<svg xmlns="http://www.w3.org/2000/svg" width="237" height="44" viewBox="0 0 237 44"><defs><style>.a{fill:#fff;}.b{fill:#fbbb00;}.c{fill:#518ef8;}.d{fill:#28b446;}.e{fill:#f14336;}</style></defs><g transform="translate(-62 -439)"><rect class="a" width="237" height="44" transform="translate(62 439)"/><g transform="translate(93 454.274)"><path class="b" d="M2.953,142.722l-.464,1.732-1.7.036a6.674,6.674,0,0,1-.049-6.222h0l1.509.277.661,1.5a3.976,3.976,0,0,0,.037,2.677Z" transform="translate(0 -134.669)"/><path class="c" d="M268.028,208.176a6.66,6.66,0,0,1-2.375,6.441h0l-1.9-.1-.269-1.68a3.971,3.971,0,0,0,1.709-2.028h-3.563v-2.636h6.4Z" transform="translate(-254.819 -202.758)"/><path class="d" d="M40.549,313.214h0a6.665,6.665,0,0,1-10.04-2.038l2.159-1.767a3.963,3.963,0,0,0,5.71,2.029Z" transform="translate(-29.715 -301.356)"/><path class="e" d="M38.795,1.534,36.636,3.3a3.962,3.962,0,0,0-5.841,2.075L28.624,3.6h0A6.664,6.664,0,0,1,38.795,1.534Z" transform="translate(-27.879)"/></g></g></svg>